<?xml version="1.0" standalone="no"?>
<!DOCTYPE svg PUBLIC "-//W3C//DTD SVG 20010904//EN"
 "http://www.w3.org/TR/2001/REC-SVG-20010904/DTD/svg10.dtd">
<svg version="1.0" xmlns="http://www.w3.org/2000/svg"
 width="415.000000pt" height="415.000000pt" viewBox="0 0 415.000000 415.000000"
 preserveAspectRatio="xMidYMid meet">
<metadata>
Created by potrace 1.11, written by Peter Selinger 2001-2013
</metadata>
<g transform="translate(0.000000,415.000000) scale(0.100000,-0.100000)"
fill="#000000" stroke="none">
<path d="M813 4109 c11 -23 26 -65 32 -93 10 -43 17 -54 48 -70 20 -11 34 -23
31 -28 -3 -5 -11 -7 -17 -5 -7 2 -20 -5 -30 -17 l-18 -21 -19 25 c-11 14 -20
19 -20 12 0 -8 -8 -10 -25 -6 -27 7 -36 -12 -10 -22 8 -4 15 -12 15 -20 0 -7
11 -21 25 -30 14 -9 23 -20 20 -24 -3 -4 2 -13 10 -20 17 -14 9 -37 -17 -45
-13 -5 -26 1 -41 18 -12 14 -33 27 -47 29 -14 2 -29 13 -35 26 -5 12 -15 22
-22 22 -18 0 -54 56 -47 74 3 9 1 16 -5 16 -6 0 -11 -4 -11 -10 0 -16 -17 -12
-24 6 -8 22 13 49 28 34 15 -15 53 -12 59 5 4 9 -9 26 -38 46 -25 18 -45 36
-45 41 0 4 -7 8 -15 8 -8 0 -15 -5 -15 -11 0 -8 -4 -8 -15 1 -16 13 -35 6 -35
-13 0 -7 11 -25 26 -40 29 -32 24 -55 -9 -32 -12 8 -32 15 -46 15 l-24 0 21
23 c12 12 23 34 24 47 3 24 1 25 -72 26 -133 2 -160 4 -159 12 6 37 -11 40
-64 12 -20 -11 -43 -20 -50 -20 -57 0 -112 -84 -126 -195 -13 -104 -22 -574
-11 -610 28 -95 32 -118 18 -126 -10 -7 -11 -12 -1 -28 13 -21 9 -87 -7 -106
-6 -7 -8 -19 -5 -27 3 -8 -6 -25 -20 -38 l-25 -23 1 -201 c0 -137 3 -193 10
-177 5 14 15 21 23 18 8 -3 20 1 26 8 8 10 18 12 29 6 18 -9 42 -4 54 13 10
15 47 -29 47 -56 0 -11 5 -18 12 -15 7 2 12 14 10 25 -2 14 2 22 12 22 8 0 23
3 33 6 13 4 11 0 -7 -15 -23 -20 -24 -22 -7 -32 14 -8 16 -14 6 -25 -6 -7 -15
-11 -20 -8 -5 3 -9 -2 -9 -10 0 -10 6 -13 15 -10 8 4 15 10 15 15 0 13 34 11
48 -3 20 -20 25 0 5 26 -10 14 -24 23 -31 21 -6 -2 -12 0 -12 5 0 6 7 10 16
10 11 0 14 8 12 28 -2 22 2 29 27 38 22 8 30 17 30 35 0 13 9 28 20 34 14 7
19 18 17 38 -3 22 1 27 18 27 19 0 22 4 18 31 -4 23 1 34 18 48 12 9 24 28 26
42 2 15 10 24 20 24 10 0 33 15 52 33 37 35 51 41 42 17 -10 -27 8 -15 34 21
14 19 33 44 42 55 9 12 18 24 20 28 8 17 68 50 82 45 12 -4 16 0 16 15 0 27
16 27 30 1 15 -28 28 -25 22 5 -3 18 0 25 11 25 9 0 17 -7 19 -17 3 -15 4 -15
16 0 12 14 9 18 -17 32 -17 8 -31 22 -31 30 0 8 -4 15 -10 15 -5 0 -10 5 -10
11 0 6 6 9 14 6 7 -3 33 12 56 34 23 22 50 38 59 37 11 -2 15 3 14 17 -1 11 5
24 13 28 8 4 14 19 14 32 0 16 6 25 15 25 8 0 15 -7 15 -16 0 -8 4 -13 9 -10
4 3 6 17 3 31 -3 20 4 33 36 63 22 20 63 58 91 85 27 26 55 47 61 47 5 0 10 7
10 15 0 13 12 19 32 16 4 0 14 15 22 34 8 19 21 35 28 35 16 0 48 75 48 113 0
16 -5 37 -10 48 -10 17 -13 18 -26 4 -9 -9 -33 -15 -59 -15 -35 0 -43 -3 -39
-15 4 -10 0 -15 -12 -15 -9 0 -25 -7 -34 -15 -21 -19 -70 -5 -70 20 0 9 -12
18 -29 21 -18 4 -31 14 -35 27 -4 17 -8 19 -18 9 -22 -22 -35 -13 -34 23 1 28
7 38 30 50 15 8 37 15 47 15 10 0 21 5 24 10 3 6 21 10 38 10 18 0 41 7 51 15
10 8 23 12 28 9 14 -9 108 -6 121 4 7 5 108 8 225 7 167 -1 215 2 224 13 7 8
32 13 62 13 89 -1 180 8 208 20 19 8 32 8 41 1 15 -13 67 -4 67 12 0 7 23 11
68 11 37 -1 73 3 80 8 7 6 17 5 27 -3 20 -17 95 -4 95 17 0 12 6 14 33 8 92
-23 263 -9 254 20 -3 7 -328 11 -954 13 l-951 2 21 -41z m-287 -176 c-11 -11
-17 4 -9 23 7 18 8 18 11 1 2 -10 1 -21 -2 -24z m34 -3 c0 -5 -2 -10 -4 -10
-3 0 -8 5 -11 10 -3 6 -1 10 4 10 6 0 11 -4 11 -10z m370 -50 c0 -5 -7 -10
-16 -10 -8 0 -12 5 -9 10 3 6 10 10 16 10 5 0 9 -4 9 -10z m-70 -171 c45 -14
57 -48 32 -86 -11 -18 -12 -27 -3 -36 6 -6 11 -21 11 -34 0 -31 -33 -30 -65 2
-28 27 -33 50 -9 41 8 -3 13 -2 10 3 -6 10 16 61 27 61 4 0 7 5 7 11 0 5 -8 9
-17 8 -34 -3 -43 1 -43 21 0 23 1 24 50 9z m-630 -69 c0 -5 -4 -10 -10 -10 -5
0 -10 5 -10 10 0 6 5 10 10 10 6 0 10 -4 10 -10z m48 -53 c3 -16 1 -17 -17 -7
-25 13 -28 33 -4 28 10 -2 19 -11 21 -21z m-37 -34 c11 -13 11 -17 2 -20 -8
-3 -11 -14 -7 -29 5 -19 2 -24 -14 -24 -25 0 -31 17 -20 58 10 36 19 40 39 15z
m-36 -152 c3 -5 1 -12 -5 -16 -5 -3 -10 1 -10 9 0 18 6 21 15 7z m58 -58 c-7
-2 -19 -2 -25 0 -7 3 -2 5 12 5 14 0 19 -2 13 -5z m57 -24 c0 -5 -4 -8 -8 -5
-5 3 -16 -4 -25 -15 -19 -21 -33 -24 -42 -8 -4 6 1 17 11 24 22 17 64 20 64 4z
m-102 -58 c2 -15 13 -24 33 -28 21 -4 29 -11 29 -27 1 -28 28 -65 38 -49 4 6
18 13 32 14 17 3 26 11 28 27 3 18 8 22 25 16 34 -10 40 -20 25 -43 -8 -14
-20 -20 -31 -17 -41 10 -54 -23 -25 -61 13 -17 -8 -53 -32 -53 -37 0 -70 22
-70 47 0 18 -6 23 -24 23 -21 0 -28 10 -36 50 -1 3 -8 12 -16 21 -15 17 -10
48 10 61 8 5 7 11 -2 20 -16 16 -16 31 1 26 6 -3 13 -15 15 -27z m112 -50 c0
-5 -7 -11 -15 -15 -15 -5 -20 5 -8 17 9 10 23 9 23 -2z m-77 -265 c9 -7 17
-20 17 -29 0 -9 5 -19 10 -22 15 -10 2 -25 -16 -18 -9 3 -13 12 -9 21 3 9 2
13 -2 8 -4 -4 -8 -17 -8 -28 0 -11 -10 -27 -22 -35 -21 -14 -23 -14 -29 3 -4
11 -16 29 -27 41 -19 21 -19 24 -3 48 18 28 59 33 89 11z m93 -25 c-4 -6 -17
-11 -28 -11 -21 0 -21 1 -3 20 19 21 44 13 31 -9z m-19 -227 c-3 -3 -12 -4
-19 -1 -8 3 -5 6 6 6 11 1 17 -2 13 -5z m-97 -14 c0 -5 -5 -10 -11 -10 -5 0
-7 5 -4 10 3 6 8 10 11 10 2 0 4 -4 4 -10z m-107 -57 c13 -8 -4 -23 -27 -23
-22 0 -46 17 -46 33 0 8 55 1 73 -10z m127 -18 c0 -8 -9 -15 -20 -15 -22 0
-27 15 -7 23 21 9 27 7 27 -8z"/>
<path d="M2760 4142 c0 -4 8 -18 17 -32 12 -17 13 -25 5 -28 -7 -2 -12 -9 -12
-15 0 -18 -31 -46 -45 -41 -22 9 -93 -34 -97 -57 -2 -15 -15 -26 -40 -35 -25
-8 -38 -9 -38 -3 0 6 9 13 19 16 21 5 35 40 19 49 -5 3 -16 -3 -24 -15 -8 -12
-21 -21 -28 -21 -17 0 -51 -38 -42 -47 4 -5 12 0 17 10 16 28 28 19 22 -17 -5
-31 -3 -34 26 -39 17 -4 30 -12 29 -18 -2 -6 3 -14 11 -17 11 -4 13 6 9 47
l-5 52 31 -7 c17 -3 43 -15 58 -25 14 -11 41 -22 60 -25 18 -4 38 -13 45 -21
6 -8 27 -16 47 -18 39 -3 96 -26 96 -37 0 -5 6 -8 13 -8 8 0 22 -9 32 -20 23
-25 30 -25 56 1 14 14 22 36 23 58 1 31 -2 36 -21 33 -12 -2 -24 1 -27 7 -3 5
-15 7 -27 4 -18 -5 -20 -2 -17 33 2 32 7 40 26 42 13 2 22 10 22 21 0 10 3 21
7 25 4 4 8 17 8 28 0 12 6 23 13 25 7 3 12 -4 12 -15 0 -16 5 -19 21 -15 16 4
20 2 17 -8 -2 -8 -14 -15 -25 -17 -20 -3 -40 -52 -22 -52 5 0 9 4 9 10 0 21
40 32 71 18 29 -13 34 -28 11 -36 -7 -2 -12 4 -12 13 0 26 -23 12 -31 -18 -8
-31 5 -44 26 -27 18 15 45 6 45 -14 0 -8 -9 -17 -19 -21 -12 -4 -20 -17 -23
-40 -4 -31 -2 -34 18 -29 20 5 22 2 22 -30 0 -26 -6 -39 -24 -51 -25 -16 -33
-45 -11 -45 6 0 27 9 46 21 31 19 33 19 26 2 -26 -66 -7 -143 35 -143 10 0 27
-10 37 -22 24 -30 78 -68 96 -68 8 0 20 -7 27 -15 7 -9 19 -14 26 -11 7 3 18
-1 24 -9 19 -23 82 -51 130 -59 24 -4 49 -11 55 -15 18 -15 73 -23 79 -12 4 6
-2 18 -14 28 -25 22 -25 29 1 36 16 4 20 12 17 34 -3 25 -6 28 -37 25 -19 -2
-44 2 -57 8 -19 11 -21 15 -9 26 15 16 10 48 -12 66 -12 10 -18 8 -33 -12 -19
-25 -19 -25 -34 -5 -9 11 -16 26 -16 33 0 17 66 47 105 47 26 0 33 7 59 58 17
31 36 57 42 57 22 0 28 22 11 35 -23 16 -21 25 3 25 13 0 20 7 20 20 0 24 13
26 31 4 10 -12 10 -20 1 -35 -16 -24 -15 -29 3 -29 9 0 15 -10 15 -26 0 -14 6
-32 13 -39 31 -36 36 -45 32 -57 -3 -8 3 -23 14 -35 12 -12 20 -35 20 -54 0
-19 0 -49 1 -67 1 -18 -5 -41 -12 -49 -16 -20 -12 -54 9 -70 9 -7 16 -22 17
-35 1 -21 6 -23 53 -23 29 0 53 -3 53 -6 0 -9 -27 -19 -51 -19 -10 0 -19 -7
-19 -15 0 -8 -5 -15 -11 -15 -6 0 -9 -14 -7 -32 3 -30 -1 -35 -39 -52 -46 -21
-58 -39 -43 -64 8 -15 9 -15 10 1 0 28 25 14 28 -16 2 -15 10 -27 18 -27 8 0
14 -4 14 -10 0 -5 7 -10 15 -10 9 0 20 -11 25 -25 5 -13 18 -33 29 -44 11 -11
24 -29 31 -40 6 -12 21 -21 34 -21 13 0 28 -6 34 -12 11 -14 0 -52 -17 -63 -7
-4 1 -18 19 -38 31 -33 41 -59 15 -37 -9 7 -19 9 -23 5 -4 -4 -1 -10 6 -12 19
-7 47 -66 33 -71 -17 -6 -13 -27 7 -45 10 -10 21 -17 24 -17 3 0 6 171 7 379
1 351 0 379 -17 386 -16 6 -16 7 1 17 21 11 16 51 -10 81 -9 9 -13 17 -9 17 4
0 -9 16 -29 37 -19 20 -35 42 -35 48 0 7 -7 18 -15 25 -21 17 -12 24 14 10 17
-9 21 -8 21 6 0 12 6 15 25 12 20 -4 25 -1 25 16 0 11 3 32 7 45 4 18 3 22 -8
19 -8 -3 -13 -13 -13 -22 1 -9 -3 -16 -8 -16 -6 0 -8 15 -4 38 5 26 4 33 -3
22 -15 -22 -27 -2 -13 20 20 32 15 52 -9 45 -15 -5 -20 -3 -17 6 3 8 13 14 24
14 10 0 20 8 22 19 3 16 0 18 -22 12 -21 -5 -26 -3 -26 13 0 35 12 51 36 51
14 0 27 7 31 16 3 8 12 13 19 10 10 -4 14 3 14 24 0 17 -4 30 -10 30 -5 0 -10
-4 -10 -10 0 -5 -4 -10 -10 -10 -14 0 -12 17 7 58 12 26 14 37 5 40 -6 2 -19
19 -28 38 l-16 34 -449 0 -449 0 0 -28 c0 -15 -5 -33 -10 -38 -6 -6 -11 -31
-12 -57 -1 -26 -4 -47 -6 -47 -15 0 -44 26 -62 55 -12 19 -27 35 -35 35 -16 0
-25 43 -13 64 8 14 -7 16 -142 16 -82 0 -150 -3 -150 -8z m1174 -8 c16 -6 23
-44 8 -44 -12 0 -32 23 -32 37 0 15 2 15 24 7z m-172 -129 c7 -16 19 -25 34
-25 17 0 21 -4 17 -20 -4 -16 -2 -19 11 -14 11 4 15 13 11 25 -5 14 -1 19 14
19 12 0 21 5 21 11 0 5 5 7 12 3 9 -6 9 -9 0 -12 -20 -6 -13 -32 9 -32 14 0
19 -5 16 -15 -4 -8 -2 -17 3 -20 18 -11 10 -30 -17 -42 -31 -15 -41 -10 -24
11 11 13 8 15 -25 12 -21 -2 -41 -10 -46 -20 -5 -9 -5 -16 -1 -17 4 0 -10 -7
-31 -15 -49 -18 -59 -9 -24 21 32 28 26 37 -19 29 -23 -4 -33 -2 -33 6 0 7 8
10 20 7 22 -6 38 26 22 46 -12 14 -4 67 9 67 5 0 15 -11 21 -25z m28 -1 c0 -8
-4 -12 -10 -9 -5 3 -10 10 -10 16 0 5 5 9 10 9 6 0 10 -7 10 -16z m110 -214
c0 -5 -7 -10 -15 -10 -8 0 -15 5 -15 10 0 6 7 10 15 10 8 0 15 -4 15 -10z m57
-32 c-3 -8 -6 -5 -6 6 -1 11 2 17 5 13 3 -3 4 -12 1 -19z m-717 -33 c0 -8 -4
-15 -10 -15 -5 0 -10 7 -10 15 0 8 5 15 10 15 6 0 10 -7 10 -15z m610 -5 c0
-5 -4 -10 -10 -10 -5 0 -10 5 -10 10 0 6 5 10 10 10 6 0 10 -4 10 -10z m200
-225 c0 -8 -2 -15 -4 -15 -2 0 -11 -3 -19 -6 -12 -4 -14 0 -10 15 6 24 33 29
33 6z m40 -25 c0 -5 -4 -10 -10 -10 -5 0 -10 5 -10 10 0 6 5 10 10 10 6 0 10
-4 10 -10z m30 -105 c0 -8 5 -15 10 -15 6 0 10 -13 10 -30 0 -16 -5 -30 -11
-30 -6 0 -9 7 -5 15 3 8 -4 21 -16 29 -12 9 -18 21 -15 30 8 20 27 21 27 1z
m-86 -120 c-22 -17 -45 -16 -52 3 -2 7 5 12 17 12 11 0 23 5 27 11 4 8 9 8 17
0 8 -8 5 -15 -9 -26z m-11 -65 c-3 -11 -9 -20 -14 -20 -5 0 -9 9 -9 20 0 11 6
20 14 20 9 0 12 -7 9 -20z"/>
<path d="M2430 3982 c0 -11 24 -22 46 -22 8 0 14 5 14 11 0 5 -8 9 -17 7 -10
-1 -24 1 -30 5 -7 5 -13 4 -13 -1z"/>
<path d="M2390 3960 c0 -5 5 -10 10 -10 6 0 10 5 10 10 0 6 -4 10 -10 10 -5 0
-10 -4 -10 -10z"/>
<path d="M675 3930 c-3 -5 -1 -10 4 -10 6 0 11 5 11 10 0 6 -2 10 -4 10 -3 0
-8 -4 -11 -10z"/>
<path d="M2370 3930 c0 -6 7 -10 15 -10 8 0 15 2 15 4 0 2 -7 6 -15 10 -8 3
-15 1 -15 -4z"/>
<path d="M2435 3930 c-3 -5 -1 -10 4 -10 6 0 11 5 11 10 0 6 -2 10 -4 10 -3 0
-8 -4 -11 -10z"/>
<path d="M735 3910 c-3 -5 1 -10 9 -10 9 0 16 5 16 10 0 6 -4 10 -9 10 -6 0
-13 -4 -16 -10z"/>
<path d="M4136 3885 c-3 -8 -1 -15 4 -15 6 0 10 7 10 15 0 8 -2 15 -4 15 -2 0
-6 -7 -10 -15z"/>
<path d="M2626 3871 c-10 -15 18 -18 44 -4 l25 13 -32 0 c-17 0 -34 -4 -37 -9z"/>
<path d="M2680 3830 c0 -11 40 -50 52 -50 5 0 -1 14 -14 30 -22 30 -38 39 -38
20z"/>
<path d="M4110 3799 c0 -5 5 -7 10 -4 6 3 10 8 10 11 0 2 -4 4 -10 4 -5 0 -10
-5 -10 -11z"/>
<path d="M3054 3749 c-8 -14 6 -31 21 -25 7 2 18 -1 24 -7 8 -8 11 -6 11 10 0
14 -8 22 -25 25 -14 3 -28 1 -31 -3z"/>
<path d="M2070 3731 c0 -11 5 -23 10 -26 6 -3 10 3 10 14 0 11 -4 23 -10 26
-5 3 -10 -3 -10 -14z"/>
<path d="M2119 3707 c-12 -17 -15 -43 -13 -114 2 -72 0 -92 -12 -97 -8 -3 -14
-12 -14 -21 0 -9 -13 -29 -30 -45 -32 -31 -38 -50 -17 -50 7 0 23 -25 37 -55
27 -59 47 -67 42 -16 -1 17 1 31 5 31 5 0 19 3 32 7 22 6 23 4 18 -28 -5 -25
-2 -41 13 -59 25 -33 38 -17 18 23 -9 18 -16 54 -15 81 l0 49 19 -23 c10 -12
15 -26 12 -31 -3 -5 -7 -22 -10 -37 -3 -22 -2 -24 6 -10 9 15 14 16 30 6 16
-10 23 -9 40 9 11 12 17 28 14 36 -3 8 -1 18 5 22 8 4 8 12 0 26 -8 16 -17 19
-35 15 -31 -8 -31 5 1 36 22 22 23 27 10 38 -8 7 -15 19 -15 27 0 12 -3 13
-13 5 -16 -14 -57 11 -57 34 0 18 10 18 37 -1 22 -15 22 -15 20 32 -2 46 -3
47 -19 31 -34 -34 -46 -10 -15 29 6 9 2 16 -17 23 -14 5 -26 15 -26 21 0 6 -8
1 -18 -11 -10 -13 -24 -21 -32 -18 -10 3 -9 8 4 21 10 9 16 21 14 26 -2 5 -10
-1 -19 -12z m-3 -303 c-3 -9 -6 -19 -6 -23 0 -5 -11 -6 -25 -3 -31 5 -32 20
-2 32 33 13 40 12 33 -6z"/>
<path d="M1350 3701 c0 -5 7 -11 15 -15 8 -3 15 -1 15 3 0 5 -7 11 -15 15 -8
3 -15 1 -15 -3z"/>
<path d="M1362 3658 c6 -18 28 -21 28 -4 0 9 -7 16 -16 16 -9 0 -14 -5 -12
-12z"/>
<path d="M3797 3644 c-8 -8 1 -24 14 -24 5 0 9 7 9 15 0 15 -12 20 -23 9z"/>
<path d="M1210 3481 c0 -5 3 -17 6 -26 5 -12 9 -14 14 -4 5 7 6 18 3 26 -6 15
-23 18 -23 4z"/>
<path d="M1135 3430 c3 -5 11 -10 16 -10 6 0 7 5 4 10 -3 6 -11 10 -16 10 -6
0 -7 -4 -4 -10z"/>
<path d="M1820 3416 c0 -7 7 -19 16 -27 10 -8 13 -21 9 -36 -6 -26 0 -29 21
-9 16 17 19 36 4 36 -6 0 -15 11 -20 25 -10 27 -30 34 -30 11z"/>
<path d="M1073 3348 c-13 -6 -23 -19 -23 -29 0 -10 -9 -19 -21 -21 -15 -2 -23
-11 -25 -31 -2 -25 0 -27 24 -21 36 9 52 23 45 40 -3 7 9 27 25 44 32 32 20
40 -25 18z"/>
<path d="M1602 3348 c6 -18 28 -21 28 -4 0 9 -7 16 -16 16 -9 0 -14 -5 -12
-12z"/>
<path d="M1870 3335 c-9 -11 -10 -19 -3 -26 7 -7 14 -5 23 6 9 11 10 19 3 26
-7 7 -14 5 -23 -6z"/>
<path d="M1810 3299 c0 -5 5 -7 10 -4 6 3 10 8 10 11 0 2 -4 4 -10 4 -5 0 -10
-5 -10 -11z"/>
<path d="M1140 3290 c0 -5 7 -10 16 -10 8 0 12 5 9 10 -3 6 -10 10 -16 10 -5
0 -9 -4 -9 -10z"/>
<path d="M2245 3270 c3 -5 8 -10 11 -10 2 0 4 5 4 10 0 6 -5 10 -11 10 -5 0
-7 -4 -4 -10z"/>
<path d="M1120 3260 c0 -5 5 -10 10 -10 6 0 10 5 10 10 0 6 -4 10 -10 10 -5 0
-10 -4 -10 -10z"/>
<path d="M2094 3236 c-4 -10 -13 -15 -20 -12 -8 3 -14 0 -14 -6 0 -15 48 -58
65 -58 20 0 29 19 16 34 -8 10 -7 17 4 26 8 7 15 17 15 22 0 6 -7 5 -15 -2
-12 -10 -18 -10 -30 0 -12 10 -16 9 -21 -4z m23 -58 c-3 -8 -6 -5 -6 6 -1 11
2 17 5 13 3 -3 4 -12 1 -19z"/>
<path d="M1185 3220 c3 -5 10 -10 16 -10 5 0 9 5 9 10 0 6 -7 10 -16 10 -8 0
-12 -4 -9 -10z"/>
<path d="M2210 3213 c0 -7 6 -13 14 -13 18 0 40 -26 28 -34 -6 -3 -12 1 -16 9
-3 8 -12 12 -20 9 -8 -3 -17 -1 -21 5 -14 23 -25 9 -25 -30 0 -37 -2 -40 -22
-33 -13 3 -29 11 -35 16 -20 16 -16 -12 4 -34 16 -17 15 -18 -8 -16 -20 3 -25
-2 -27 -24 -2 -16 -9 -28 -18 -28 -8 0 -14 -4 -14 -9 0 -4 18 -8 40 -8 22 0
40 4 40 9 0 5 5 6 10 3 7 -4 7 -12 0 -25 -16 -29 -13 -45 5 -30 12 10 18 10
32 -1 15 -12 16 -12 11 7 -3 12 -2 28 3 35 4 8 1 17 -8 24 -12 9 -13 14 -4 19
7 5 18 1 25 -10 9 -12 15 -14 20 -6 4 7 14 12 22 12 11 0 14 -6 9 -22 -6 -23
-6 -23 13 1 14 17 19 39 19 72 0 26 5 55 13 64 11 14 11 19 -3 33 -21 20 -87
25 -87 5z"/>
<path d="M912 3189 c-7 -11 -10 -29 -7 -40 4 -13 0 -28 -11 -40 -16 -18 -16
-19 0 -19 17 0 37 37 29 56 -2 6 3 17 11 24 13 10 17 9 22 -4 11 -29 23 -19
38 33 1 2 -15 5 -35 6 -26 3 -38 -1 -47 -16z"/>
<path d="M1730 3191 c0 -11 26 -22 34 -14 3 3 3 10 0 14 -7 12 -34 11 -34 0z"/>
<path d="M850 3180 c0 -5 5 -10 10 -10 6 0 10 5 10 10 0 6 -4 10 -10 10 -5 0
-10 -4 -10 -10z"/>
<path d="M1085 3180 c-3 -5 1 -10 9 -10 9 0 16 5 16 10 0 6 -4 10 -9 10 -6 0
-13 -4 -16 -10z"/>
<path d="M1925 3180 c-3 -5 1 -10 9 -10 12 0 15 -8 14 -29 -2 -17 1 -30 7 -31
14 -1 24 57 12 69 -14 14 -34 14 -42 1z"/>
<path d="M1260 3170 c0 -5 5 -10 11 -10 5 0 7 5 4 10 -3 6 -8 10 -11 10 -2 0
-4 -4 -4 -10z"/>
<path d="M1055 3131 c-3 -8 -14 -11 -28 -7 -16 4 -26 -1 -35 -14 -7 -11 -21
-20 -33 -20 -29 0 -59 -18 -59 -35 0 -8 5 -15 10 -15 14 0 60 29 83 52 10 10
24 18 32 18 20 0 19 -38 0 -42 -10 -2 -12 -7 -5 -18 9 -13 12 -13 21 3 18 31
68 77 83 77 8 0 17 4 21 9 3 5 -14 9 -40 8 -27 -1 -47 -7 -50 -16z"/>
<path d="M1780 3116 c0 -17 14 -29 23 -20 8 8 -3 34 -14 34 -5 0 -9 -6 -9 -14z"/>
<path d="M2018 3122 c-15 -6 -15 -9 3 -31 16 -20 22 -22 29 -11 7 11 -4 52
-13 49 -1 0 -10 -3 -19 -7z"/>
<path d="M1116 3091 c-4 -7 -5 -15 -2 -18 9 -9 19 4 14 18 -4 11 -6 11 -12 0z"/>
<path d="M1435 3090 c-3 -5 1 -10 10 -10 9 0 13 5 10 10 -3 6 -8 10 -10 10 -2
0 -7 -4 -10 -10z"/>
<path d="M845 3070 c-3 -5 -3 -14 0 -20 3 -5 1 -10 -5 -10 -6 0 -13 7 -16 15
-7 17 -34 20 -34 4 0 -6 9 -13 20 -16 15 -4 19 -11 15 -24 -4 -11 -3 -19 2
-19 9 0 43 56 43 71 0 12 -17 12 -25 -1z"/>
<path d="M1475 3060 c3 -5 10 -10 16 -10 5 0 9 5 9 10 0 6 -7 10 -16 10 -8 0
-12 -4 -9 -10z"/>
<path d="M925 3030 c-3 -5 -14 -10 -24 -10 -10 0 -21 -9 -24 -20 -4 -15 0 -20
14 -20 10 0 19 4 19 9 0 5 10 11 22 13 26 3 38 38 14 38 -8 0 -18 -4 -21 -10z"/>
<path d="M740 3022 c0 -5 7 -13 16 -16 10 -4 14 -1 12 6 -5 15 -28 23 -28 10z"/>
<path d="M978 3003 c-45 -23 -35 -38 27 -38 53 -1 72 9 40 21 -8 4 -15 12 -15
20 0 17 -16 16 -52 -3z"/>
<path d="M1150 2993 c0 -10 6 -13 16 -9 9 3 20 6 25 6 21 0 7 15 -16 16 -16 1
-25 -3 -25 -13z"/>
<path d="M737 2973 c-10 -9 -8 -33 2 -33 5 0 11 9 14 20 5 20 -3 26 -16 13z"/>
<path d="M786 2973 c-11 -11 -6 -23 9 -23 8 0 15 4 15 9 0 13 -16 22 -24 14z"/>
<path d="M1180 2965 c0 -8 5 -15 10 -15 6 0 10 7 10 15 0 8 -4 15 -10 15 -5 0
-10 -7 -10 -15z"/>
<path d="M824 2959 c-9 -15 11 -33 30 -26 9 4 13 13 10 22 -7 17 -30 20 -40 4z"/>
<path d="M890 2946 c0 -8 5 -18 10 -21 6 -3 10 1 10 9 0 8 -4 18 -10 21 -5 3
-10 -1 -10 -9z"/>
<path d="M1290 2946 c0 -9 5 -16 10 -16 6 0 10 4 10 9 0 6 -4 13 -10 16 -5 3
-10 -1 -10 -9z"/>
<path d="M2770 2945 c0 -8 4 -15 9 -15 5 0 14 7 21 15 10 13 9 15 -9 15 -12 0
-21 -6 -21 -15z"/>
<path d="M1116 2924 c-5 -14 -4 -15 9 -4 17 14 19 20 6 20 -5 0 -12 -7 -15
-16z"/>
<path d="M860 2890 c0 -5 5 -10 11 -10 5 0 7 5 4 10 -3 6 -8 10 -11 10 -2 0
-4 -4 -4 -10z"/>
<path d="M1050 2890 c0 -5 5 -10 10 -10 6 0 10 5 10 10 0 6 -4 10 -10 10 -5 0
-10 -4 -10 -10z"/>
<path d="M2775 2874 c-9 -14 -15 -38 -14 -52 2 -15 -4 -38 -14 -52 -9 -13 -17
-30 -17 -36 0 -6 -14 -28 -30 -49 -17 -21 -33 -49 -36 -61 -3 -13 -14 -26 -24
-29 -26 -8 -24 -86 2 -93 10 -2 18 -8 18 -12 0 -5 9 -11 19 -15 11 -3 37 -23
58 -44 l38 -38 124 3 c146 4 204 25 233 82 9 18 23 41 32 51 9 10 16 22 16 28
0 19 76 64 95 57 14 -6 16 -3 10 14 -4 13 -2 22 4 22 6 0 11 7 11 15 0 19 -36
20 -43 1 -5 -12 -11 -12 -31 -3 -14 7 -24 17 -22 24 5 13 -29 39 -89 66 -22
10 -50 27 -61 38 -20 19 -27 20 -95 10 -41 -6 -89 -13 -106 -17 -32 -6 -33 -6
-33 27 0 19 7 43 15 53 18 23 11 36 -19 36 -14 0 -30 -10 -41 -26z"/>
<path d="M795 2880 c-3 -5 -1 -10 4 -10 6 0 11 5 11 10 0 6 -2 10 -4 10 -3 0
-8 -4 -11 -10z"/>
<path d="M1174 2877 c-9 -24 6 -44 18 -22 7 11 6 21 -1 28 -7 7 -12 6 -17 -6z"/>
<path d="M1242 2863 c4 -22 43 -25 43 -3 0 8 -11 16 -23 18 -19 3 -23 0 -20
-15z"/>
<path d="M2660 2855 c-16 -19 3 -45 32 -45 24 0 34 26 18 45 -16 19 -34 19
-50 0z"/>
<path d="M665 2850 c-3 -5 0 -18 7 -29 16 -27 101 -24 106 3 5 24 -16 46 -27
28 -6 -10 -14 -10 -35 -2 -34 12 -43 13 -51 0z"/>
<path d="M1579 2804 c-5 -15 -7 -29 -5 -32 10 -9 36 20 36 39 0 28 -19 23 -31
-7z"/>
<path d="M1490 2724 l0 -32 -90 2 c-85 2 -105 -3 -79 -20 21 -13 -19 -26 -42
-14 -16 9 -26 8 -45 -5 -13 -8 -24 -22 -24 -30 0 -8 -9 -19 -19 -25 -26 -13
-31 -13 -31 5 0 8 4 15 9 15 16 0 23 40 11 55 -18 22 -32 18 -25 -5 7 -22 -11
-53 -26 -45 -4 3 -5 13 -2 23 6 15 5 15 -10 3 -21 -17 -22 -35 -2 -51 8 -7 15
-16 15 -21 0 -14 -32 -10 -50 6 -12 11 -24 13 -41 7 -23 -9 -23 -9 9 -16 28
-7 46 -26 23 -26 -9 0 -91 -76 -91 -84 0 -2 15 -13 33 -24 26 -16 47 -19 109
-18 86 3 85 4 158 -90 22 -29 51 -55 65 -58 14 -4 70 -7 123 -7 127 0 178 -5
232 -22 39 -12 46 -19 53 -51 7 -29 13 -35 27 -31 25 8 50 -4 50 -24 0 -9 -14
-25 -30 -35 -30 -17 -33 -40 -4 -29 9 3 20 0 26 -8 7 -10 8 -8 3 9 -5 17 1 30
24 53 25 25 27 29 10 24 -17 -6 -20 -3 -17 12 3 13 12 18 36 17 37 -2 38 -1
15 26 -20 23 -33 26 -33 6 0 -18 -69 -31 -83 -17 -8 8 -3 11 16 11 17 0 27 5
27 15 0 8 7 15 15 15 8 0 19 9 26 21 10 19 8 20 -10 14 -25 -8 -28 11 -5 36
12 13 13 22 5 38 -15 27 -14 31 9 31 22 0 28 34 9 46 -6 3 -8 17 -5 30 8 31
-11 67 -30 60 -19 -7 -64 21 -64 40 0 8 -10 14 -22 14 -21 1 -21 2 -5 11 16 9
16 12 2 32 -10 15 -13 33 -8 61 5 35 4 39 -8 29 -8 -6 -27 -13 -44 -15 -24 -2
-31 1 -33 18 -3 19 -10 21 -74 22 -46 1 -75 6 -80 14 -5 8 -8 1 -8 -18z"/>
<path d="M1036 2731 c-3 -5 5 -11 19 -13 20 -4 23 -3 14 8 -13 16 -25 18 -33
5z"/>
<path d="M3353 2693 c-13 -2 -23 -10 -23 -18 0 -7 -7 -16 -16 -19 -8 -3 -12
-11 -9 -17 5 -8 10 -8 18 0 6 6 30 11 54 11 44 0 55 14 31 38 -12 12 -16 13
-55 5z"/>
<path d="M1275 2680 c4 -6 11 -8 16 -5 14 9 11 15 -7 15 -8 0 -12 -5 -9 -10z"/>
<path d="M500 2670 c0 -5 4 -10 9 -10 6 0 13 5 16 10 3 6 -1 10 -9 10 -9 0
-16 -4 -16 -10z"/>
<path d="M970 2580 c0 -5 6 -10 14 -10 8 0 18 5 21 10 3 6 -3 10 -14 10 -12 0
-21 -4 -21 -10z"/>
<path d="M110 2546 c0 -9 5 -16 10 -16 6 0 10 4 10 9 0 6 -4 13 -10 16 -5 3
-10 -1 -10 -9z"/>
<path d="M922 2511 c-11 -6 -10 -10 4 -15 20 -8 32 0 18 14 -5 5 -15 5 -22 1z"/>
<path d="M90 2494 c0 -8 5 -12 10 -9 6 4 8 11 5 16 -9 14 -15 11 -15 -7z"/>
<path d="M340 2470 c0 -5 4 -10 9 -10 6 0 13 5 16 10 3 6 -1 10 -9 10 -9 0
-16 -4 -16 -10z"/>
<path d="M105 2449 l-30 -21 30 7 c35 8 38 10 34 24 -3 6 -17 2 -34 -10z"/>
<path d="M165 2439 c-10 -15 3 -25 16 -12 7 7 7 13 1 17 -6 3 -14 1 -17 -5z"/>
<path d="M190 2381 c0 -6 5 -13 10 -16 6 -3 10 1 10 9 0 9 -4 16 -10 16 -5 0
-10 -4 -10 -9z"/>
<path d="M300 2370 c0 -5 5 -10 10 -10 6 0 10 5 10 10 0 6 -4 10 -10 10 -5 0
-10 -4 -10 -10z"/>
<path d="M107 2330 c5 -20 23 -26 36 -13 9 8 -12 33 -28 33 -8 0 -11 -8 -8
-20z"/>
<path d="M250 2340 c0 -5 4 -10 9 -10 6 0 13 5 16 10 3 6 -1 10 -9 10 -9 0
-16 -4 -16 -10z"/>
<path d="M315 2330 c3 -5 13 -10 21 -10 8 0 14 5 14 10 0 6 -9 10 -21 10 -11
0 -17 -4 -14 -10z"/>
<path d="M76 2271 c-3 -5 1 -14 8 -20 16 -13 32 2 21 19 -8 12 -22 13 -29 1z"/>
<path d="M260 2100 c0 -5 7 -7 15 -4 8 4 15 8 15 10 0 2 -7 4 -15 4 -8 0 -15
-4 -15 -10z"/>
<path d="M48 1974 c24 -17 39 -14 27 5 -3 6 -16 11 -28 11 l-21 0 22 -16z"/>
<path d="M2467 1952 c-24 -5 -16 -26 11 -30 14 -2 22 2 22 12 0 18 -10 24 -33
18z"/>
<path d="M2415 1898 c-4 -13 -8 -27 -9 -33 -2 -19 -36 -45 -60 -45 -14 0 -28
-5 -31 -10 -4 -6 -15 -8 -24 -5 -10 3 -37 -5 -62 -18 -24 -13 -50 -22 -56 -20
-7 3 -16 -2 -19 -11 -10 -25 -28 -19 -60 19 -31 38 -54 44 -74 20 -14 -17 -7
-45 12 -45 7 0 19 -13 26 -30 13 -28 12 -31 -21 -60 -19 -16 -37 -43 -40 -59
-4 -18 -14 -32 -27 -36 -20 -6 -29 -35 -10 -35 6 0 10 -4 10 -9 0 -6 -17 -11
-37 -13 -31 -2 -39 -7 -41 -27 -3 -20 0 -23 18 -18 14 3 20 1 17 -6 -2 -7 -8
-12 -13 -12 -11 0 -50 -38 -57 -56 -4 -10 -6 -8 -6 5 -2 37 -81 -2 -81 -40 0
-14 7 -16 47 -10 25 3 43 3 40 -1 -4 -3 -2 -13 5 -20 9 -11 9 -16 -1 -23 -7
-4 -9 -9 -3 -11 5 -2 13 -14 16 -27 6 -16 3 -24 -10 -29 -17 -6 -28 -15 -72
-53 -22 -20 -42 -19 -42 1 0 6 18 27 40 46 45 41 54 69 18 57 -13 -3 -38 -22
-56 -40 -39 -40 -55 -42 -87 -9 -27 26 -32 45 -12 45 7 0 21 15 32 33 10 17
23 35 29 39 6 4 7 11 2 15 -5 4 -11 2 -13 -4 -3 -7 -12 -13 -21 -13 -8 0 -31
-5 -49 -12 -23 -8 -36 -9 -43 -2 -15 15 -2 44 16 37 8 -3 14 0 14 6 0 6 -19
11 -46 11 -37 0 -47 4 -51 20 -3 11 -10 20 -15 20 -6 0 -24 6 -41 14 -66 29
-237 26 -237 -4 0 -6 -9 -10 -20 -10 -14 0 -20 -7 -21 -22 0 -13 -3 -17 -6
-10 -8 21 -35 14 -28 -8 8 -24 -7 -26 -25 -5 -18 22 -23 12 -9 -19 7 -14 18
-26 26 -26 7 0 13 -7 13 -15 0 -35 47 -89 80 -91 35 -2 40 -5 40 -18 0 -8 9
-18 20 -21 11 -3 20 -12 20 -19 0 -7 17 -32 37 -55 31 -36 33 -42 15 -37 -13
5 -22 3 -22 -3 0 -6 5 -11 10 -11 6 0 10 -7 8 -16 -2 -11 5 -18 20 -19 28 -2
62 -36 62 -61 0 -4 7 -1 15 6 17 14 35 5 35 -16 0 -8 5 -12 10 -9 6 3 15 3 22
-1 7 -5 5 -11 -8 -21 -18 -14 -18 -15 -1 -28 11 -7 26 -11 35 -7 15 5 15 3 4
-11 -12 -14 -10 -21 13 -52 31 -40 45 -44 52 -15 6 22 33 28 33 7 0 -7 8 -22
18 -33 9 -10 18 -32 19 -47 1 -37 10 -44 34 -28 12 7 22 11 23 9 1 -2 12 -19
24 -40 22 -35 49 -54 61 -43 3 3 -1 10 -8 14 -27 17 -7 31 21 17 25 -13 29
-13 38 2 8 14 10 14 11 2 1 -8 1 -21 0 -28 -1 -7 8 -16 21 -22 l23 -9 -22 0
c-18 -1 -23 -7 -23 -27 0 -21 4 -25 19 -21 17 4 18 2 8 -19 -8 -20 -7 -28 7
-42 16 -16 17 -16 11 10 -6 23 -3 29 19 40 17 7 25 17 21 26 -3 9 0 19 6 23
21 13 39 -2 39 -33 0 -24 3 -28 19 -23 11 3 22 1 26 -5 3 -5 12 -10 18 -10 7
0 3 7 -7 15 -14 11 -16 18 -8 28 14 17 10 80 -6 100 -8 9 -21 13 -30 10 -15
-6 -15 -5 -3 10 17 22 7 34 -13 17 -13 -10 -18 -9 -31 3 -8 9 -15 23 -15 31 0
22 -13 20 -28 -5 -7 -12 -16 -18 -19 -15 -4 3 -15 -1 -25 -11 -17 -15 -18 -15
-18 1 0 9 7 19 16 23 8 3 13 12 10 19 -3 8 -1 14 4 14 6 0 10 7 10 15 0 8 -7
15 -15 15 -17 0 -20 16 -5 25 15 9 3 24 -33 38 -29 12 -33 11 -54 -12 -12 -14
-23 -21 -23 -14 0 6 5 15 10 18 14 9 12 25 -2 25 -7 0 -25 -6 -39 -14 -38 -19
-79 -28 -79 -16 0 5 7 10 16 10 9 0 14 7 12 18 -2 11 -12 16 -25 15 -14 -2
-24 4 -28 17 -6 18 -19 24 -52 23 -21 -1 -16 62 6 81 20 18 35 8 26 -16 -10
-25 21 -39 96 -41 42 -2 74 -8 76 -14 11 -31 41 -51 73 -50 33 2 35 0 32 -25
-3 -20 1 -28 12 -28 9 0 16 -4 16 -10 0 -5 13 -10 28 -10 40 0 82 -22 82 -43
0 -24 43 -40 120 -43 36 -1 69 -3 73 -3 4 -1 19 -12 32 -26 17 -16 25 -20 25
-10 0 21 20 18 50 -5 31 -24 59 -28 40 -5 -10 12 -10 15 4 15 9 0 16 -4 16
-10 0 -19 18 -10 58 30 34 32 43 37 50 24 12 -21 59 -2 73 30 8 16 23 26 44
30 18 4 38 13 44 20 6 8 25 16 41 20 17 3 30 11 30 18 0 16 104 139 128 152 9
5 59 52 110 104 76 78 92 101 92 126 0 23 8 36 30 51 16 11 30 27 30 35 0 8
10 38 22 67 16 39 26 52 38 48 19 -6 43 30 35 54 -3 10 1 24 10 31 8 7 15 22
15 34 0 17 -2 18 -10 6 -5 -8 -21 -16 -36 -17 -15 -1 -34 -5 -43 -8 -14 -6
-14 -8 2 -19 17 -13 17 -15 0 -45 -10 -17 -25 -33 -34 -36 -15 -5 -69 -79 -69
-95 0 -4 -7 -21 -15 -36 -8 -16 -15 -39 -15 -50 0 -12 -7 -27 -15 -34 -8 -7
-15 -20 -15 -29 0 -10 -14 -22 -34 -29 -19 -7 -36 -21 -39 -33 -3 -12 -11 -19
-19 -16 -7 2 -21 -2 -30 -11 -14 -12 -20 -12 -33 -2 -19 16 -19 34 0 26 9 -3
15 0 15 8 0 8 -5 16 -11 18 -5 2 -11 12 -13 21 -1 10 -8 22 -16 27 -9 6 -10
18 -4 46 4 22 7 47 6 56 -1 10 7 41 18 68 41 104 16 265 -49 324 -32 29 -140
86 -165 86 -21 1 -116 37 -111 42 3 3 0 17 -6 32 -9 18 -18 25 -30 21 -9 -3
-24 1 -32 10 -22 22 -43 19 -52 -7z m-495 -528 c0 -5 -4 -10 -10 -10 -5 0 -10
5 -10 10 0 6 5 10 10 10 6 0 10 -4 10 -10z m-700 -40 c0 -5 -5 -10 -11 -10 -5
0 -7 5 -4 10 3 6 8 10 11 10 2 0 4 -4 4 -10z m1620 -18 c0 -13 -12 -22 -22
-16 -10 6 -1 24 13 24 5 0 9 -4 9 -8z m-1604 -59 c-7 -7 -26 7 -26 19 0 6 6 6
15 -2 9 -7 13 -15 11 -17z m674 -53 c0 -11 5 -20 11 -20 6 0 4 -7 -5 -15 -8
-8 -24 -15 -35 -15 -11 0 -23 -4 -26 -10 -8 -13 -42 -13 -51 1 -3 6 5 23 20
37 20 21 28 24 38 14 18 -18 30 -14 23 8 -5 14 -2 20 9 20 9 0 16 -9 16 -20z
m105 -30 c3 -5 -3 -10 -14 -10 -12 0 -21 5 -21 10 0 6 6 10 14 10 8 0 18 -4
21 -10z m-615 -40 c0 -5 -4 -10 -9 -10 -6 0 -13 5 -16 10 -3 6 1 10 9 10 9 0
16 -4 16 -10z m537 -10 c-1 -12 -8 -20 -19 -20 -21 0 -23 11 -6 28 18 18 27
15 25 -8z m-462 -51 c-6 -9 -35 -1 -35 10 0 4 3 11 7 14 8 9 34 -13 28 -24z
m59 -25 c8 -20 -1 -34 -20 -34 -8 0 -14 10 -14 25 0 28 24 34 34 9z m76 -124
c0 -5 -5 -10 -11 -10 -5 0 -7 5 -4 10 3 6 8 10 11 10 2 0 4 -4 4 -10z m157
-106 c3 -8 1 -20 -6 -27 -8 -8 -15 -6 -25 8 -11 15 -11 22 -3 27 18 12 27 9
34 -8z m33 -87 c11 -5 9 -6 -4 -4 -11 1 -21 9 -23 17 -3 10 -2 11 4 4 4 -6 15
-14 23 -17z m270 -68 c0 -11 -38 -22 -50 -14 -18 11 -10 20 20 21 17 1 30 -2
30 -7z"/>
<path d="M2172 1804 c10 -10 20 -16 22 -13 3 3 -5 11 -17 18 -21 13 -21 12 -5
-5z"/>
<path d="M1963 1790 c-31 -12 -29 -30 2 -30 18 0 25 5 25 20 0 11 -1 20 -2 19
-2 0 -13 -4 -25 -9z"/>
<path d="M4093 1789 c-7 -7 -10 -24 -7 -38 4 -19 -1 -32 -20 -50 -25 -24 -35
-51 -18 -51 4 0 9 -18 10 -40 2 -23 -2 -40 -8 -40 -5 0 -10 5 -10 10 0 6 -8
10 -17 10 -13 0 -14 -3 -5 -12 7 -7 12 -20 12 -29 0 -9 6 -19 13 -22 7 -3 12
-23 12 -53 l0 -49 -42 1 c-34 1 -43 -3 -43 -16 0 -9 6 -22 12 -28 10 -10 8
-14 -10 -18 -15 -4 -22 -14 -22 -30 0 -13 -9 -29 -20 -36 -17 -11 -18 -14 -4
-30 18 -19 11 -38 -15 -38 -18 0 -41 -18 -41 -32 0 -4 7 -8 15 -8 8 0 15 -4
15 -10 0 -5 -8 -10 -19 -10 -28 0 -44 -26 -38 -59 5 -25 3 -28 -13 -24 -15 4
-20 0 -20 -15 0 -11 6 -22 13 -25 9 -3 7 -10 -6 -25 -11 -11 -16 -25 -13 -31
13 -21 -18 -51 -51 -51 -26 0 -33 -4 -33 -19 0 -10 7 -21 15 -25 13 -4 12 -9
-3 -36 -12 -22 -14 -32 -5 -38 10 -6 17 -62 14 -114 -1 -9 -10 -20 -22 -23
-11 -4 -24 -18 -30 -32 -8 -21 -4 -29 20 -54 30 -29 59 -37 77 -19 20 20 38
-9 42 -69 4 -59 22 -97 22 -47 0 28 30 86 45 86 6 0 11 -22 10 -52 0 -32 5
-53 13 -55 8 -3 10 1 6 11 -5 12 2 19 25 27 26 9 30 15 29 45 -1 19 -5 37 -9
40 -12 7 1 34 16 34 17 0 28 -34 20 -60 -3 -11 -2 -20 4 -20 5 0 11 -10 13
-22 2 -16 11 -24 28 -26 37 -6 50 -21 50 -58 0 -33 24 -69 41 -58 5 3 4 14 -2
27 -9 16 -9 22 0 25 14 5 16 1382 2 1382 -5 0 -15 2 -23 5 -7 3 -19 0 -25 -6z"/>
<path d="M2020 1710 c0 -5 4 -10 9 -10 6 0 13 5 16 10 3 6 -1 10 -9 10 -9 0
-16 -4 -16 -10z"/>
<path d="M1650 1630 c0 -5 5 -10 10 -10 6 0 10 5 10 10 0 6 -4 10 -10 10 -5 0
-10 -4 -10 -10z"/>
<path d="M1627 1514 c-4 -4 -7 -11 -7 -16 0 -13 50 -6 53 7 2 12 -36 19 -46 9z"/>
<path d="M1710 1445 c-9 -11 -9 -17 2 -28 14 -14 78 -19 78 -6 0 4 3 15 7 25
5 14 2 16 -20 10 -14 -3 -29 -2 -32 4 -9 14 -21 12 -35 -5z"/>
<path d="M1610 1420 c0 -5 5 -10 10 -10 6 0 10 5 10 10 0 6 -4 10 -10 10 -5 0
-10 -4 -10 -10z"/>
<path d="M935 1399 c-11 -16 -1 -19 13 -3 7 8 8 14 3 14 -5 0 -13 -5 -16 -11z"/>
<path d="M1030 1400 c0 -5 7 -10 16 -10 8 0 12 5 9 10 -3 6 -10 10 -16 10 -5
0 -9 -4 -9 -10z"/>
<path d="M958 1375 c-29 -27 -34 -40 -19 -49 13 -8 76 37 76 54 0 25 -28 22
-57 -5z"/>
<path d="M1665 1251 c-7 -12 31 -25 45 -16 5 3 10 10 10 16 0 12 -47 12 -55 0z"/>
<path d="M1245 1190 c-3 -5 -1 -10 4 -10 6 0 11 5 11 10 0 6 -2 10 -4 10 -3 0
-8 -4 -11 -10z"/>
<path d="M18 1093 c-20 -5 -25 -33 -5 -33 7 0 18 9 25 20 12 20 11 21 -20 13z"/>
<path d="M95 1043 c-11 -2 -30 -6 -43 -9 -31 -6 -18 -24 18 -24 39 0 83 18 75
30 -6 10 -15 11 -50 3z"/>
<path d="M210 990 c0 -5 9 -10 21 -10 11 0 17 5 14 10 -3 6 -13 10 -21 10 -8
0 -14 -4 -14 -10z"/>
<path d="M91 971 c-21 -14 4 -54 30 -46 13 4 19 2 19 -9 0 -8 7 -19 17 -24 14
-9 14 -10 -4 -16 -12 -4 -23 -16 -26 -26 -7 -28 -51 -26 -71 2 -12 17 -18 20
-28 10 -9 -9 -9 -12 0 -12 7 0 12 -12 12 -26 0 -21 -4 -25 -20 -21 -19 5 -19
-2 -20 -297 l0 -302 35 0 c23 0 40 -7 49 -19 13 -17 12 -22 -9 -43 -23 -22
-25 -23 -49 -7 -25 17 -26 16 -26 -3 0 -22 37 -34 83 -25 15 3 27 1 27 -4 0
-5 13 -8 30 -5 18 3 30 0 30 -7 0 -6 -5 -11 -11 -11 -8 0 -8 -4 -1 -13 9 -10
6 -18 -9 -31 -12 -9 -24 -14 -27 -10 -4 4 -1 9 6 11 29 11 8 20 -42 18 -47 -2
-55 0 -59 17 -3 11 -10 17 -16 13 -17 -10 -13 -40 8 -59 16 -15 19 -15 31 -1
7 9 16 12 19 8 20 -27 63 -33 224 -31 93 1 170 6 173 10 3 5 10 5 16 2 6 -4
34 -9 63 -11 42 -4 53 -1 59 12 3 9 10 13 16 10 5 -3 10 1 10 10 0 10 7 15 17
13 26 -5 27 -27 1 -37 -17 -7 4 -10 75 -10 60 -1 97 3 97 9 0 7 7 7 21 0 16
-9 25 -8 40 6 24 22 24 25 -2 53 -16 17 -18 26 -10 34 8 8 11 7 11 -6 0 -9 14
-24 31 -32 23 -13 28 -19 20 -29 -8 -10 -7 -17 5 -27 13 -11 17 -10 26 2 7 11
11 11 15 2 6 -16 159 -18 168 -2 11 16 -5 25 -16 9 -8 -13 -11 -12 -24 4 -8
11 -12 29 -9 41 4 17 0 24 -18 29 -35 9 -38 8 -38 -14 0 -11 -7 -23 -16 -27
-20 -8 -65 45 -60 70 2 9 -3 21 -11 26 -19 10 -9 69 13 78 32 12 10 23 -38 19
-63 -5 -88 -14 -88 -30 0 -13 -35 -46 -50 -46 -17 0 -11 17 15 48 29 35 32 47
9 38 -10 -4 -24 2 -36 16 -14 16 -31 23 -56 23 -35 0 -37 1 -35 32 2 17 -2 35
-7 38 -15 9 -12 35 5 35 9 0 12 -6 9 -15 -4 -9 0 -15 10 -15 19 0 19 -1 5 39
-6 17 -15 31 -20 31 -5 0 -9 9 -9 21 0 15 -5 19 -22 17 -17 -2 -23 4 -29 27
-5 17 -20 37 -35 46 -23 14 -30 15 -55 2 -16 -8 -29 -19 -29 -24 0 -5 -10 -9
-22 -8 l-23 0 22 9 c27 11 36 39 28 84 -5 22 -14 36 -27 39 -11 3 -22 15 -25
27 -6 22 -33 20 -63 -5 -32 -26 -80 -22 -80 8 0 14 -101 77 -123 77 -23 0 -29
17 -8 23 12 3 18 14 19 36 0 17 -4 31 -9 31 -13 0 -11 44 3 58 10 10 8 14 -9
18 -12 4 -25 15 -28 25 -4 10 -12 19 -20 19 -7 0 -19 2 -27 5 -7 3 -19 1 -27
-4z m-56 -281 c3 -5 2 -10 -4 -10 -5 0 -13 5 -16 10 -3 6 -2 10 4 10 5 0 13
-4 16 -10z m392 -102 c-3 -7 -5 -2 -5 12 0 14 2 19 5 13 2 -7 2 -19 0 -25z
m153 -69 c0 -12 -27 -11 -35 1 -11 17 5 32 21 19 8 -6 14 -15 14 -20z m-372
-30 c-2 -6 -8 -10 -13 -10 -5 0 -11 4 -13 10 -2 6 4 11 13 11 9 0 15 -5 13
-11z m157 -30 c11 -17 -1 -21 -15 -4 -8 9 -8 15 -2 15 6 0 14 -5 17 -11z
m-175 -15 c0 -8 -4 -12 -10 -9 -5 3 -10 10 -10 16 0 5 5 9 10 9 6 0 10 -7 10
-16z m133 -22 c-3 -9 -10 -22 -14 -28 -5 -6 -6 -14 -2 -17 3 -4 1 -7 -5 -7
-16 0 -42 29 -42 47 0 8 9 17 20 20 11 3 20 10 20 15 0 6 6 5 14 -2 8 -6 12
-19 9 -28z m-93 -32 c26 -26 25 -36 -5 -35 -24 0 -61 25 -37 25 7 0 12 -4 12
-10 0 -5 5 -10 10 -10 6 0 10 7 10 15 0 8 -4 15 -10 15 -5 0 -10 5 -10 10 0
15 8 12 30 -10z m178 -27 c-4 -22 -22 -20 -26 1 -2 10 3 16 13 16 10 0 15 -7
13 -17z m44 2 c0 -5 -5 -11 -11 -13 -6 -2 -11 4 -11 13 0 9 5 15 11 13 6 -2
11 -8 11 -13z m-108 -17 c-8 -28 -12 -33 -20 -25 -9 8 6 47 17 47 6 0 7 -10 3
-22z m-56 -26 c2 -7 -6 -12 -17 -12 -21 0 -27 11 -14 24 9 9 26 2 31 -12z
m389 -74 c-3 -7 -5 -2 -5 12 0 14 2 19 5 13 2 -7 2 -19 0 -25z m-27 -8 c0 -5
6 -10 13 -10 7 0 13 -9 14 -20 2 -24 -5 -25 -33 -5 -12 8 -24 11 -28 8 -3 -3
-6 -2 -6 3 0 12 21 34 32 34 4 0 8 -4 8 -10z m-383 -16 c11 -11 26 -14 48 -10
20 4 43 0 64 -10 21 -11 47 -15 72 -11 21 3 39 1 39 -4 0 -5 -9 -9 -19 -9 -11
0 -23 -4 -26 -10 -8 -12 -52 -13 -59 -1 -6 9 -79 6 -96 -4 -5 -3 -10 3 -10 14
0 23 -42 51 -48 32 -5 -16 -29 -14 -35 3 -5 13 2 17 46 25 5 0 16 -6 24 -15z
m658 -24 c3 -5 -4 -19 -16 -31 -16 -16 -26 -19 -37 -12 -26 16 -24 30 5 41 37
14 41 14 48 2z m-385 -78 c0 -13 -12 -22 -22 -16 -10 6 -1 24 13 24 5 0 9 -4
9 -8z m-340 -96 c0 -3 -4 -8 -10 -11 -5 -3 -10 -1 -10 4 0 6 5 11 10 11 6 0
10 -2 10 -4z"/>
<path d="M35 920 c-3 -5 1 -10 9 -10 8 0 18 5 21 10 3 6 -1 10 -9 10 -8 0 -18
-4 -21 -10z"/>
<path d="M231 881 c-14 -26 -14 -31 3 -31 8 0 16 -6 19 -12 3 -10 9 -10 28 -1
13 6 32 14 42 17 27 9 9 28 -23 24 -15 -1 -34 3 -43 10 -13 11 -17 10 -26 -7z"/>
<path d="M340 795 c-7 -8 -19 -15 -27 -15 -8 0 -13 -6 -10 -12 5 -17 17 -16
47 4 17 13 21 21 14 28 -8 8 -15 6 -24 -5z"/>
<path d="M385 749 c-4 -6 -5 -13 -2 -16 7 -7 27 6 27 18 0 12 -17 12 -25 -2z"/>
<path d="M337 733 c-4 -3 -7 -13 -7 -21 0 -12 3 -12 15 -2 8 7 15 16 15 21 0
11 -14 12 -23 2z"/>
<path d="M2251 704 c0 -11 3 -14 6 -6 3 7 2 16 -1 19 -3 4 -6 -2 -5 -13z"/>
<path d="M1733 678 c2 -7 10 -13 17 -13 7 0 15 6 18 13 2 7 -5 12 -18 12 -13
0 -20 -5 -17 -12z"/>
<path d="M3705 513 c4 -10 10 -30 13 -45 3 -19 10 -28 23 -28 21 0 25 -20 8
-37 -8 -8 -8 -13 0 -18 6 -3 14 1 17 9 5 14 9 13 31 -4 31 -24 46 -18 30 14
-31 59 -144 160 -122 109z"/>
<path d="M3672 448 c-7 -7 -12 -20 -12 -30 0 -10 -7 -18 -15 -18 -8 0 -15 -4
-15 -10 0 -15 66 -12 79 4 9 10 9 16 1 21 -6 4 -15 16 -18 26 -6 15 -10 17
-20 7z"/>
<path d="M3995 420 c-8 -13 3 -30 21 -30 18 0 18 14 0 29 -10 8 -16 9 -21 1z"/>
<path d="M815 412 c-3 -3 0 -11 5 -17 12 -15 60 -7 60 9 0 12 -54 18 -65 8z"/>
<path d="M780 381 c0 -14 -5 -18 -20 -14 -14 4 -20 0 -20 -10 0 -8 -6 -18 -12
-20 -7 -3 -3 -6 9 -6 12 -1 25 4 28 9 3 6 14 10 24 10 14 0 17 6 13 25 -5 29
-22 34 -22 6z"/>
<path d="M1170 10 c0 -5 5 -10 10 -10 6 0 10 5 10 10 0 6 -4 10 -10 10 -5 0
-10 -4 -10 -10z"/>
</g>
</svg>
